<?xml version="1.0" standalone="no"?>
<!DOCTYPE svg PUBLIC "-//W3C//DTD SVG 20010904//EN"
 "http://www.w3.org/TR/2001/REC-SVG-20010904/DTD/svg10.dtd">
<svg version="1.0" xmlns="http://www.w3.org/2000/svg"
 width="700.000000pt" height="700.000000pt" viewBox="0 0 700.000000 700.000000"
 preserveAspectRatio="xMidYMid meet">
<metadata>
Created by potrace 1.14, written by Peter Selinger 2001-2017
</metadata>
<g transform="translate(0.000000,700.000000) scale(0.100000,-0.100000)"
fill="#000000" stroke="none">
<path d="M1851 6959 c-65 -21 -113 -61 -226 -190 -80 -91 -171 -193 -216 -243
-25 -28 -57 -64 -70 -79 l-25 -29 -139 46 c-77 26 -153 49 -169 52 -16 3 -33
7 -38 10 -11 7 -165 6 -213 -2 -115 -18 -249 -90 -328 -175 -174 -186 -212
-236 -235 -303 -51 -150 21 -257 250 -374 122 -62 379 -194 608 -314 91 -47
237 -123 325 -168 88 -46 212 -110 277 -144 l116 -61 -21 -30 c-11 -16 -75
-106 -142 -200 -66 -93 -127 -180 -135 -192 -71 -102 -132 -183 -139 -183 -5
0 -64 20 -132 44 -545 195 -579 206 -674 206 -155 0 -270 -53 -387 -181 -110
-119 -131 -157 -132 -241 -1 -58 3 -71 29 -109 31 -44 75 -81 162 -133 26 -17
160 -103 296 -193 136 -90 251 -163 255 -163 5 0 13 -5 19 -11 7 -7 4 -25 -13
-60 -119 -245 -23 -519 209 -598 46 -16 52 -21 53 -47 2 -53 15 -213 19 -236
2 -13 9 -57 15 -98 38 -263 159 -656 216 -708 17 -15 38 -22 67 -22 l42 -1 53
-107 c29 -59 62 -124 73 -145 l22 -38 -22 -23 c-37 -40 -31 -86 24 -168 110
-166 248 -331 398 -476 49 -48 99 -96 111 -107 87 -83 359 -277 496 -354 219
-124 508 -241 730 -296 152 -38 307 -65 467 -82 136 -15 562 -7 659 11 12 2
45 7 75 11 193 23 547 125 739 212 36 17 85 39 110 51 158 72 394 222 565 359
103 81 322 292 408 392 131 152 298 403 395 596 96 191 201 473 236 635 31
141 47 224 52 270 3 30 7 57 9 60 18 29 27 515 12 665 -54 552 -267 1102 -592
1525 -27 36 -53 70 -57 75 -56 73 -296 321 -389 400 -136 117 -321 246 -479
334 -330 184 -670 300 -1035 351 -131 19 -128 17 -120 47 26 105 27 416 2 513
-82 312 -312 416 -749 339 -270 -47 -473 -153 -663 -343 -115 -116 -116 -117
-269 -332 l-130 -181 -120 40 c-67 22 -125 43 -130 48 -5 4 7 25 27 46 145
155 181 221 181 328 1 133 -35 191 -221 354 -97 86 -137 111 -197 127 -69 19
-119 17 -195 -7z"/>
</g>
</svg>
